<mxfile host="app.diagrams.net" modified="2024-11-07T17:58:46.508Z" agent="Mozilla/5.0 (Windows NT 10.0; Win64; x64) AppleWebKit/537.36 (KHTML, like Gecko) Chrome/130.0.0.0 Safari/537.36" version="24.6.3" etag="znq5_lVWg0KuYeR1Hnkk" type="github">
  <diagram name="Halaman-1" id="4jvQt63a97J1r6khbA4J">
    <mxGraphModel>
      <root>
        <mxCell id="0" />
        <mxCell id="1" parent="0" />
      </root>
    </mxGraphModel>
  </diagram>
</mxfile>
